<?xml version="1.0" standalone="no"?>
<!DOCTYPE svg PUBLIC "-//W3C//DTD SVG 20010904//EN"
 "http://www.w3.org/TR/2001/REC-SVG-20010904/DTD/svg10.dtd">
<svg version="1.0" xmlns="http://www.w3.org/2000/svg"
 width="500.000000pt" height="500.000000pt" viewBox="0 0 500.000000 500.000000"
 preserveAspectRatio="xMidYMid meet">

<g transform="translate(0.000000,500.000000) scale(0.100000,-0.100000)"
fill="#000000" stroke="none">
<path d="M2144 3216 c11 -9 17 -16 13 -16 -4 0 -1 -13 8 -30 9 -16 21 -30 28
-30 8 0 7 -4 -3 -10 -13 -8 -12 -10 3 -10 20 0 20 1 7 35 -6 15 -15 23 -21 20
-6 -4 -9 0 -7 10 2 10 -8 23 -22 32 -23 14 -24 14 -6 -1z"/>
<path d="M3977 3203 c10 -15 22 -31 27 -34 5 -4 5 -13 0 -20 -6 -12 -5 -12 9
0 22 18 21 28 -3 36 -11 4 -18 10 -16 14 3 4 -4 13 -15 19 -20 13 -20 12 -2
-15z"/>
<path d="M4020 3131 c-7 -13 -7 -20 1 -23 17 -6 -2 -38 -32 -53 -44 -23 -144
-120 -197 -193 -130 -176 -192 -376 -192 -618 0 -126 12 -208 36 -256 l15 -28
114 0 c62 0 116 3 118 8 3 4 -8 35 -24 70 -68 146 -64 248 11 287 52 27 201
57 258 53 74 -6 84 -21 79 -128 -3 -62 -12 -110 -35 -178 -18 -51 -32 -97 -32
-103 0 -5 50 -9 115 -9 108 0 115 1 129 23 36 55 46 401 16 562 -43 234 -184
461 -322 522 -36 16 -43 27 -40 66 2 22 -5 22 -18 -2z"/>
<path d="M2191 3103 c4 -22 -4 -33 -38 -54 -169 -103 -320 -351 -367 -599 -20
-102 -21 -314 -2 -393 22 -92 29 -97 163 -97 62 0 113 4 113 8 0 5 -12 33 -26
63 -54 111 -67 195 -39 248 39 76 328 134 373 75 24 -33 10 -182 -27 -286 -17
-47 -31 -91 -31 -97 0 -7 39 -11 115 -11 109 0 115 1 130 24 39 59 45 424 10
591 -48 228 -218 480 -337 499 -15 2 -22 9 -20 20 2 9 -2 16 -8 16 -5 0 -9 -3
-9 -7z"/>
<path d="M3020 3070 c-159 -23 -260 -137 -260 -293 0 -148 73 -232 270 -310
128 -51 175 -75 205 -107 25 -26 30 -39 30 -81 0 -44 -4 -54 -32 -79 -59 -53
-195 -61 -282 -16 -50 26 -100 94 -122 168 -11 37 -23 68 -28 68 -29 0 -71
-104 -71 -176 0 -118 79 -230 190 -271 163 -61 368 -24 472 84 112 115 117
315 11 433 -45 50 -153 110 -263 145 -78 25 -146 61 -164 87 -25 35 -21 110 7
135 73 67 165 54 287 -41 32 -25 49 -32 61 -26 21 12 79 122 79 150 0 76 -233
153 -390 130z"/>
<path d="M662 3052 c-39 -26 -57 -281 -48 -682 6 -311 13 -386 37 -401 8 -5
60 -9 117 -9 86 0 102 2 102 16 0 8 -11 59 -24 112 -14 53 -32 144 -40 201
-18 117 -22 415 -6 455 33 87 114 -53 192 -334 22 -79 47 -155 56 -168 33 -51
79 -49 100 5 6 15 27 89 46 164 49 196 123 359 161 359 30 0 37 -52 37 -247
-1 -215 -13 -325 -48 -458 -13 -49 -24 -93 -24 -97 0 -5 49 -8 110 -8 123 0
121 -2 140 85 28 127 29 837 0 945 -6 25 -19 51 -28 58 -26 20 -171 16 -208
-7 -43 -26 -125 -139 -181 -248 -26 -51 -50 -93 -53 -93 -3 0 -34 59 -70 132
-37 75 -82 151 -106 177 l-42 46 -103 3 c-57 1 -110 -1 -117 -6z"/>
</g>
</svg>
